<svg viewBox="0 0 64 64" xmlns="http://www.w3.org/2000/svg" role="img" aria-label="SportSync ball icon">
  <defs>
    <radialGradient id="bg" cx="28%" cy="20%" r="92%">
      <stop offset="0%" stop-color="#172033"/>
      <stop offset="58%" stop-color="#07111f"/>
      <stop offset="100%" stop-color="#020617"/>
    </radialGradient>
    <radialGradient id="ball" cx="34%" cy="23%" r="75%">
      <stop offset="0%" stop-color="#ffd08a"/>
      <stop offset="34%" stop-color="#ff9f1c"/>
      <stop offset="73%" stop-color="#f97316"/>
      <stop offset="100%" stop-color="#b94a00"/>
    </radialGradient>
    <linearGradient id="blueArc" x1="14" y1="10" x2="54" y2="56">
      <stop offset="0%" stop-color="#38bdf8"/>
      <stop offset="100%" stop-color="#0047ab"/>
    </linearGradient>
    <filter id="shadow" x="-25%" y="-20%" width="150%" height="150%">
      <feDropShadow dx="0" dy="5" stdDeviation="4" flood-color="#000000" flood-opacity="0.45"/>
    </filter>
  </defs>

  <rect width="64" height="64" rx="16" fill="url(#bg)"/>
  <circle cx="32" cy="32" r="23" fill="url(#ball)" filter="url(#shadow)"/>

  <path d="M12 35c8.5-2.8 16.5-2.4 24 1.1 5.7 2.6 10.7 2.7 16 0"
        fill="none" stroke="#fff7ed" stroke-width="4.2" stroke-linecap="round" opacity="0.95"/>
  <path d="M32 9c-5.1 7.3-7.3 15.1-6.5 23.5.7 7.5-1.2 14.4-5.8 20.7"
        fill="none" stroke="#fff7ed" stroke-width="4.2" stroke-linecap="round" opacity="0.95"/>
  <path d="M46.5 14.2c-6.2 4.7-9.9 10.2-11.1 16.6-1.2 6.5-4.8 11.8-10.8 15.8"
        fill="none" stroke="#ffffff" stroke-width="2.4" stroke-linecap="round" opacity="0.42"/>

  <path d="M16 21.5c5.1-7.7 15.2-11.1 24.4-7.5 8 3.2 12.9 10.5 13.2 18.4"
        fill="none" stroke="url(#blueArc)" stroke-width="4.5" stroke-linecap="round"/>
  <circle cx="47.5" cy="19" r="3.2" fill="#38bdf8"/>
  <rect x="1.5" y="1.5" width="61" height="61" rx="15" fill="none" stroke="#ffffff" stroke-opacity="0.08" stroke-width="3"/>
</svg>
